<svg xmlns="http://www.w3.org/2000/svg" width="169.171" height="13" viewBox="-3.585 -0.5 169.171 13"><g fill="#F68933"><path d="M60.114 12.244h11.022l.588-1.758h-5.737l.914-2.734h4.236l.588-1.757H67.49l.833-2.495h5.738l.588-1.757H63.626M57.62 1.743l-5.396 8.512H51.12l.236-8.512h-5.42l.37 10.5h8.002l7.54-10.5M34.972 12.244h5.29l3.514-10.5h-5.292M119.33 1.743l-8.09 10.5h4.445l6.16-8.853.275 8.854h5.704l-.95-10.5M16.697 1.638c-.142-.43-.45-.83-.913-1.156-.462-.327-1.08-.58-1.777-.745-.698-.162-1.48-.235-2.263-.235H.677l-4.262 12.743H7.192c.75 0 1.583-.063 2.414-.204.83-.14 1.66-.36 2.376-.642.714-.28 1.315-.625 1.746-.98.43-.355.69-.72.803-1.062l2.135-6.378c.15-.448.174-.91.032-1.34zM10.63 2.823L8.6 8.897c-.052.155-.135.31-.25.455-.114.145-.263.28-.432.387-.34.213-.768.325-1.152.328l-3.448.017 2.827-8.447h3.41c.15 0 .313.026.472.086.157.063.308.16.42.283.11.122.184.27.212.414.028.143.013.284-.026.403zM32.553 2.517c-.473-.257-1.085-.46-1.748-.587-.662-.13-1.374-.186-2.05-.186h-8.453l-3.512 10.5h5.113l2.913-8.707h2.3c.123 0 .257.02.386.07.13.05.254.13.344.23.092.1.152.22.175.34.025.116.013.23-.02.33l-.184.546c-.06.18-.155.363-.29.53-.136.167-.307.322-.505.447s-.422.222-.65.285c-.23.062-.466.092-.69.092h-1.074l-.45 1.34 1.856 4.495h6.246L28.732 7.83h.985c.322 0 .685-.042 1.054-.14.37-.094.746-.246 1.076-.437.33-.19.618-.425.832-.665.215-.243.357-.493.435-.723l.497-1.483c.104-.31.094-.646-.078-.97-.173-.326-.507-.64-.98-.895zM83.72 3.006c.06-.178.155-.357.288-.524.133-.167.305-.32.502-.444.197-.125.42-.22.648-.283.228-.06.462-.09.685-.09h8.066L94.633-.5H84.33c-.67 0-1.416.056-2.16.185-.744.13-1.487.332-2.13.588-.64.257-1.18.57-1.57.894-.386.325-.62.66-.725.972l-2.46 7.355c-.108.323-.105.674.06 1.012.165.336.488.664.952.93.464.27 1.066.48 1.72.613.653.133 1.354.193 2.024.193h11.542l2.543-7.6H87.81l-1.857 5.55h-3.388c-.126 0-.266-.022-.4-.074-.133-.055-.26-.137-.354-.24-.093-.104-.154-.23-.18-.35-.023-.122-.01-.238.023-.34l2.068-6.184zM107.34 1.743l-2.68 8.01c-.037.107-.112.225-.232.338-.122.114-.29.224-.485.313-.197.09-.42.16-.646.204-.226.045-.447.065-.65.065h-.29c-.212 0-.434-.024-.638-.076-.203-.057-.388-.14-.526-.247-.14-.11-.23-.242-.274-.378-.042-.137-.032-.278.01-.41l2.62-7.82h-5.307l-2.578 7.705c-.08.244-.11.51-.067.775.042.265.16.53.345.77.185.237.44.447.73.614.29.165.62.288.952.365 2.875.673 5.863.707 8.752.1 1.914-.403 3.098-1.22 3.497-2.416l2.646-7.913h-5.18v.003zM146.213 2.517c-.473-.257-1.084-.46-1.747-.587-.663-.13-1.373-.186-2.05-.186h-8.454l-3.512 10.5h5.115l2.913-8.707h2.3c.12 0 .257.02.388.07.128.05.25.13.343.23.09.1.15.22.174.34.024.116.01.23-.022.33l-.183.546c-.062.18-.157.363-.29.53-.135.166-.308.32-.507.446-.197.124-.42.22-.652.284-.228.062-.464.092-.687.092h-1.073l-.45 1.34 1.856 4.495h6.244l-3.524-4.412h.985c.322 0 .688-.042 1.053-.14.37-.094.746-.244 1.077-.437.33-.19.618-.424.83-.664.217-.243.36-.492.438-.723l.494-1.483c.104-.31.095-.647-.077-.97-.174-.324-.508-.638-.982-.893zM165.506 3.587c-.118-.36-.377-.705-.754-.988-.383-.287-.886-.51-1.438-.65-.553-.145-1.15-.207-1.73-.207h-9.287l-3.512 10.5h9.05c.603 0 1.272-.052 1.94-.17.67-.12 1.34-.306 1.918-.543.576-.237 1.065-.528 1.416-.826.35-.3.563-.61.658-.896l1.722-5.148c.115-.343.134-.715.016-1.073zm-5.05.882l-1.725 5.156c-.076.225-.253.456-.497.61-.247.155-.56.235-.84.235h-2.92l2.33-6.965h2.774c.12 0 .254.02.384.07s.25.13.342.23c.09.1.148.22.173.336.024.118.013.232-.02.33z"/></g></svg>