<?xml version="1.0" encoding="utf-8"?>
<!-- Generator: Adobe Illustrator 16.0.5, SVG Export Plug-In . SVG Version: 6.00 Build 0)  -->
<!DOCTYPE svg PUBLIC "-//W3C//DTD SVG 1.1//EN" "http://www.w3.org/Graphics/SVG/1.1/DTD/svg11.dtd">
<svg version="1.1" id="Layer_1" xmlns="http://www.w3.org/2000/svg" xmlns:xlink="http://www.w3.org/1999/xlink" x="0px" y="0px"
	 width="244.375px" height="25px" viewBox="100.699 10.302 244.375 25" enable-background="new 100.699 10.302 244.375 25"
	 xml:space="preserve">
<path fill="#FF0000" d="M106.889,10.45h21.823c6.174,0,8.814,1.535,9.043,5.7c0.149,2.718,0.095,12.261-11.007,12.261h-10.295
	l-1.591,6.788h-14.162L106.889,10.45z M117.757,23.317h2.767c2.661,0,4.018-1.675,4.569-6.064c0.176-1.403-0.763-2.221-2.394-2.221
	h-2.712L117.757,23.317z"/>
<path fill="#FF0000" d="M140.798,14.703c3.074-4.835,5.83-4.375,16.502-4.375c8.243,0,15.202-0.849,15.634,7.022
	c0.199,3.636-0.831,9.731-3.815,13.873c-2.809,3.896-8.106,3.976-15.869,3.976c-8.875,0-14.867-0.865-15.634-7.399
	C137,22.548,138.262,18.728,140.798,14.703z M152.65,16.786c-0.949,1.8-2.762,9.548-2.692,10.818
	c0.144,2.613,1.874,3.213,3.466,3.213c2.835,0,3.364-0.459,4.422-2.4c0.388-0.706,2.791-8.312,2.634-11.171
	c-0.101-1.835-0.64-2.965-3.319-2.965C155.259,14.28,153.917,14.385,152.65,16.786z"/>
<path fill="#FF0000" d="M182.993,16.473h-9.309l1.417-6.022h33.585l-1.418,6.022h-9.392l-4.5,18.727h-14.884L182.993,16.473z"/>
<path fill="#FF0000" d="M210.12,10.45h30.327l-1.365,5.914h-16.664l-0.866,3.312h16.664l-1.255,5.437h-16.664l-0.78,3.479h16.664
	l-1.535,6.607h-30.289L210.12,10.45z"/>
<path fill="#FF0000" d="M242.643,10.45h11.25l8.846,9.56h0.078l2.375-9.56h8.835l-5.476,24.749h-10.155l-9.854-11.377h-0.078
	l-2.699,11.377h-9.194L242.643,10.45z"/>
<path fill="#FF0000" d="M285.918,16.578l-0.003-0.071h-10.66l1.485-6.056h31.011l-16.067,18.065l0.003,0.07h12.504l-1.621,6.613
	h-33.216L285.918,16.578z"/>
<path fill="#FF0000" d="M318.554,10.553h18.594l5.861,24.749h-14.612l-0.764-4.303h-10.154l-2.45,4.303h-11.327L318.554,10.553z
	 M325.742,17.204l-4.416,7.485h5.357L325.742,17.204z"/>
<g>
	<path fill="#FF0000" d="M341.318,11.151h-0.903v2.498h-0.475v-2.498h-0.903v-0.384h2.281V11.151L341.318,11.151z M345.075,13.649
		h-0.476v-2.407h-0.014l-0.944,2.407h-0.301l-0.945-2.407h-0.015v2.407h-0.475v-2.882h0.734l0.86,2.19l0.846-2.19h0.729V13.649
		L345.075,13.649z"/>
</g>
</svg>
