<?xml version="1.0" encoding="utf-8"?>
<!-- Generator: Adobe Illustrator 16.0.5, SVG Export Plug-In . SVG Version: 6.00 Build 0)  -->
<!DOCTYPE svg PUBLIC "-//W3C//DTD SVG 1.1//EN" "http://www.w3.org/Graphics/SVG/1.1/DTD/svg11.dtd">
<svg version="1.1" id="Layer_1" xmlns="http://www.w3.org/2000/svg" xmlns:xlink="http://www.w3.org/1999/xlink" x="0px" y="0px"
	 width="353.388px" height="25px" viewBox="6.82 0.482 353.388 25" enable-background="new 6.82 0.482 353.388 25"
	 xml:space="preserve">
<g>
	<path fill="#F5D900" d="M107.781,25.475c1.202,0,13.002,0,15.165,0c0.454-0.938,8.425-21.854,9.627-24.658
		c-1.122,0-17.781,0.023-20.504,0.023c-0.454,1.102-6.342,15.996-7.224,18.239c-1.281,0-11.4,0-13.723,0
		c0.279-0.896,6.049-15.521,7.17-18.323c-0.962,0-20.787,0-21.908,0c-0.223,0.606-2.136,5.24-5.58,14.212
		c-3.444,8.971,3.043,10.507,5.286,10.507c2.244,0,18.183,0,22.667,0c1.015,0,4.408-1.851,6.408-3.191
		C105.485,23.726,105.912,25.475,107.781,25.475"/>
	<path fill="#F5D900" d="M185.663,6.677c1.642,0-26.193,0-27.368,0c-2.136,0-2.617-0.253-4.058,3.377
		c-0.355,0.896-0.321,1.122,0.908,0.695c1.229-0.428,2.029-0.587,4.059-0.587c2.029,0,22.229,0,23.67,0l-2.244,5.74
		c-2.297,0-22.443,0-25.326,0c-2.509,0-3.043-0.079-4.272,2.322c-0.577,1.13-0.32,1.323,1.282,1.323s26.395,0,28.157,0l-2.338,5.927
		c-2.456,0-41.624,0-45.041,0c-4.059,0-6.927,0.332-4.619-5.381c2.334-5.781,5.038-12.979,5.847-14.899
		c2.205-5.233,2.804-4.439,10.172-4.439c5.287,0,41.867,0,43.428,0L185.663,6.677z"/>
	<path fill="#F5D900" d="M289.254,6.677c1.644,0-26.192,0-27.366,0c-2.136,0-2.617-0.253-4.058,3.377
		c-0.355,0.896-0.321,1.122,0.907,0.695c1.227-0.428,2.028-0.587,4.059-0.587c2.029,0,22.228,0,23.67,0l-2.243,5.74
		c-2.296,0-22.441,0-25.325,0c-2.51,0-3.044-0.079-4.271,2.322c-0.579,1.13-0.322,1.323,1.28,1.323s26.395,0,28.156,0l-2.338,5.927
		c-2.456,0-41.622,0-45.041,0c-4.059,0-6.927,0.332-4.619-5.381c2.335-5.781,5.038-12.979,5.848-14.899
		c2.205-5.233,2.803-4.439,10.173-4.439c5.286,0,41.865,0,43.428,0L289.254,6.677z"/>
	<path fill="#F5D900" d="M190.949,0.756c1.761,0,15.084,0,21.321,0l-7.505,18.792c1.603,0,23.364,0,25.126,0l-2.162,5.927
		c-2.456,0-36.434,0-39.851,0c-4.058,0-7.141,0.439-4.619-5.381C185.738,14.373,190.073,2.645,190.949,0.756z"/>
	<path fill="#F5D900" d="M311.734,12.812c0.642,0,9.452,0,12.818,0c3.364,0,4.325-1.202,4.726-3.203
		c0.4-2.003-2.243-2.724-3.684-2.724c-1.442,0-10.72,0-11.521,0L311.734,12.812z M335.578,17.974
		c0.122,1.425,0.754,1.532,4.607,1.532s6.515,0,7.155,0l-2.337,5.969c-4.173,0-23.145,0-24.75,0l-7.21-7.501h-3.577l-2.725,7.501
		c-3.13,0-21.679,0-21.679,0c1.323-3.491,9.063-22.912,9.787-24.719c2.408,0,16.922,0,18.728,0l1.39,2.978l3.47-2.978
		c0.803,0,21.285,0,23.052,0c1.766,0,8.348-0.254,8.348,6.81S344.248,17.974,335.578,17.974z"/>
	<path fill="#F5D900" d="M58.75,0.869c-5.207,0-17.969,0-19.25,0l-2.804,2.429L35.414,0.79c-2.403,0-16.42,0-18.743,0
		C15.79,2.712,6.82,25.46,6.82,25.46s40.476,0,46.403,0s12.814-1.146,15.779-10.813C71.458,6.638,67.507,0.869,58.75,0.869z
		 M47.989,13.873c-1.361,5.044-5.606,5.686-8.036,5.686c-2.43,0-9.585,0-9.585,0l5.019-12.628c0,0,4.192,0,8.263,0
		S49.351,8.827,47.989,13.873z"/>
	<path fill="#F5D900" d="M360.208,5.875h-0.762V1.25l-1.686,4.625h-0.449l-1.638-4.625v4.625h-0.774V0.482h1.246l1.396,3.804
		l1.442-3.804h1.225V5.875z M354.044,1.25h-1.534v4.625h-0.854V1.25h-1.546V0.482h3.936V1.25H354.044z"/>
</g>
</svg>
