<?xml version="1.0" encoding="utf-8"?>
<!-- Generator: Adobe Illustrator 16.0.5, SVG Export Plug-In . SVG Version: 6.00 Build 0)  -->
<!DOCTYPE svg PUBLIC "-//W3C//DTD SVG 1.1//EN" "http://www.w3.org/Graphics/SVG/1.1/DTD/svg11.dtd">
<svg version="1.1" id="Layer_1" xmlns="http://www.w3.org/2000/svg" xmlns:xlink="http://www.w3.org/1999/xlink" x="0px" y="0px"
	 width="350.402px" height="25px" viewBox="24.07 1.717 350.402 25" enable-background="new 24.07 1.717 350.402 25"
	 xml:space="preserve">
<path fill="#144DDF" d="M49.195,26.706L35.954,26.71l6.175-21.023H24.07l1.173-3.966h49.042l-1.155,3.966H57.488
	c-1.214,0-2.483,0.984-2.835,2.199L49.195,26.706L49.195,26.706z"/>
<path fill="#144DDF" d="M121.515,1.72l-5.588,19.271c-0.916,3.158-4.216,5.715-7.373,5.715l-30.655,0.001
	c-3.521,0-5.547-2.854-4.526-6.374L78.771,1.72h13.047l-5.326,18.368c-0.458,1.578,0.45,2.857,2.029,2.857l16.364-0.001
	c1.335,0,2.73-1.083,3.118-2.418l5.454-18.807H121.515L121.515,1.72z"/>
<path fill="#144DDF" d="M156.131,16.772h5.041c3.156,0,6.458-2.558,7.372-5.714l1.049-3.626c0.915-3.156-0.901-5.715-4.058-5.715
	l-37.09,0.003L121.2,26.706h13.106l6.097-21.02h13.678c1.214,0,1.913,0.984,1.561,2.199l-1.18,4.065
	c-0.422,1.456-1.946,2.638-3.403,2.638h-9.15l-0.75,2.645l8.978,7.262c1.368,1.083,3.318,2.212,6.408,2.212
	c1.038,0,12.341,0,12.341,0L156.131,16.772L156.131,16.772z"/>
<path fill="#144DDF" d="M221.412,26.679l-4.411-21.002c-0.459-2.184-2.602-3.957-4.788-3.957h-19.822
	c-1.213,0-2.975,0.985-3.934,2.198l-17.988,22.787l9.235-0.006l15.627-20.308c0.561-0.729,1.606-1.319,2.333-1.319h3.059
	c1.216,0,2.404,0.984,2.658,2.198l2.445,11.642l-15.923-0.001l-2.994,4.031h18.007c0.972,0,1.924,0.788,2.127,1.759l0.423,2.016
	L221.412,26.679L221.412,26.679z"/>
<path fill="#144DDF" d="M367.342,26.679l-4.41-21.002c-0.46-2.184-2.604-3.957-4.787-3.957h-19.822
	c-1.214,0-2.976,0.985-3.934,2.198l-17.99,22.787l9.235-0.006L341.26,6.392c0.562-0.729,1.605-1.319,2.335-1.319h3.06
	c1.214,0,2.403,0.984,2.659,2.198l2.443,11.642l-15.924-0.001l-2.992,4.031h18.008c0.971,0,1.924,0.788,2.128,1.759l0.422,2.016
	L367.342,26.679L367.342,26.679z"/>
<path fill="#144DDF" d="M268.42,26.706l-16.089,0.001c-1.456,0-3.37-1.182-4.275-2.638L237.693,7.385l-5.614,19.321h-8.069
	l7.208-24.984h15.878c1.456,0,3.371,1.181,4.275,2.638l10.43,16.792l5.544-19.431h8.438L268.42,26.706L268.42,26.706z"/>
<path fill="#144DDF" d="M299.668,5.686l-20.301,14.365c-2.436,1.88-4.547,3.068-5.597,6.654h40.338l1.167-3.762h-20.647
	l20.905-14.646c2.66-2.072,5.222-3.517,5.841-6.576h-40.353l-1.162,3.966L299.668,5.686L299.668,5.686z"/>
<g>
	<path fill="#144DDF" d="M368.879,2.497h-1.339v3.714h-0.771V2.497h-1.34V1.864h3.449V2.497L368.879,2.497z M372.064,5.06
		l1.226-3.196h1.182v4.347h-0.771V2.676h-0.021l-1.361,3.535h-0.527l-1.361-3.535h-0.021v3.535h-0.77V1.864h1.181L372.064,5.06z"/>
</g>
</svg>
