<?xml version="1.0" encoding="utf-8"?>
<!-- Generator: Adobe Illustrator 16.0.5, SVG Export Plug-In . SVG Version: 6.00 Build 0)  -->
<!DOCTYPE svg PUBLIC "-//W3C//DTD SVG 1.1//EN" "http://www.w3.org/Graphics/SVG/1.1/DTD/svg11.dtd">
<svg version="1.1" id="Layer_1" xmlns="http://www.w3.org/2000/svg" xmlns:xlink="http://www.w3.org/1999/xlink" x="0px" y="0px"
	 width="248.775px" height="25px" viewBox="226.776 22.789 248.775 25" enable-background="new 226.776 22.789 248.775 25"
	 xml:space="preserve">
<g>
	<path fill="#5CA311" d="M273.507,23.993c0,0-26.046,0-33.021,0c-9.122,0-11.024,4.536-11.707,7.218
		c-0.683,2.684-1.17,4.39-1.707,6.439s-1.366,8.634,7.853,8.634c9.608,0,28.631,0,28.631,0l5.316-5.513h-25.266l1.024-3.561
		l17.901,0.049l4.195-4.049h-21.12l1.122-3.706h21.12L273.507,23.993z"/>
	<path fill="#5CA311" d="M315.064,23.993c0,0-17.928-0.222-24.61-0.271s-15.916,3.339-19.19,9.685
		c-4.243,8.22,4.194,13.121,10.096,13.121c5.902,0,23.754,0,23.754,0l5.463-5.608c0,0-15.658,0.097-18.779,0.097
		s-6.285-2.192-4.87-5.705c1.147-2.849,5.065-5.903,9.113-5.903c4.049,0,13.609,0,13.609,0L315.064,23.993z"/>
	<path fill="#5CA311" d="M407.3,23.993l-6,22.242h16.389l5.902-22.242H407.3z"/>
	<path fill="#5CA311" d="M334.047,22.904c-12.647,0.93-22.874,7.228-22.843,14.067s10.308,11.631,22.955,10.702
		c12.646-0.929,22.874-7.228,22.844-14.067C356.972,26.767,346.694,21.975,334.047,22.904z M340.988,35.529
		c-1.09,3.812-4.112,6.902-8.926,6.902c-4.863,0-6.066-3.09-4.975-6.902c1.091-3.812,3.917-6.902,8.926-6.902
		C340.486,28.627,342.079,31.717,340.988,35.529z"/>
	<path fill="#5CA311" d="M362.036,23.993c0,0,8.828,0,26.29,0s14.193,8.438,14.193,8.438s-1.561,8.34-13.706,8.34
		c-6.146,0-13.9,0-13.9,0l-1.464,5.464h-17.413L362.036,23.993z M377.984,29.163l-1.706,6.634c0,0,2.731,0,4.926,0
		c3.708,0,5.967-1.018,6.584-3.351c0.513-1.94-0.74-3.283-5.754-3.283C380.912,29.163,377.984,29.163,377.984,29.163z"/>
	<path fill="#5CA311" d="M430.518,23.993l-5.414,5.512h24.632l-0.829,3.658c0,0-12.049,0-18.535,0c-5.225,0-8.021,4.004-8.244,7.216
		c-0.243,3.512,0.859,5.856,6.927,5.856c9.268,0,33.51,0,33.51,0s2.244-8.536,3.512-13.171c1.269-4.633,0.243-9.072-8.926-9.072
		C451.491,23.993,430.518,23.993,430.518,23.993z M447.687,37.26l-0.878,3.708c0,0-4.293,0-7.22,0s-1.853-3.708,0.83-3.708
		C443.492,37.26,447.687,37.26,447.687,37.26z"/>
</g>
<g>
	<path fill="#5CA311" d="M471.011,24.591h-1.088v3.015h-0.625v-3.015h-1.088v-0.514h2.801V24.591z M473.598,26.673l0.993-2.595h0.96
		v3.529h-0.626v-2.87h-0.018l-1.104,2.87h-0.428l-1.105-2.87h-0.017v2.87h-0.626v-3.529h0.96L473.598,26.673z"/>
</g>
</svg>
